HIERARCHY
ROOT Spine
{
    OFFSET 0.0 0.0 -0.0
    CHANNELS 6 Xposition Yposition Zposition Zrotation Xrotation Yrotation
    JOINT ShoulderCenter
    {
        OFFSET 0.0 33.60853958129883 0.0
        CHANNELS 3 Zrotation Xrotation Yrotation
        JOINT LeftShoulder
        {
            OFFSET 17.732324600219727 0.0 0.0
            CHANNELS 3 Zrotation Xrotation Yrotation
            JOINT LeftElbow
            {
                OFFSET 29.74256134033203 0.0 0.0
                CHANNELS 3 Zrotation Xrotation Yrotation
                JOINT LeftHand
                {
                    OFFSET 32.387245178222656 0.0 0.0
                    CHANNELS 3 Zrotation Xrotation Yrotation
                    End Site
                    {
                        OFFSET 12.954896926879883 0.0 0.0
                    }
                }
            }
        }
        JOINT RightShoulder
        {
            OFFSET -17.732324600219727 0.0 0.0
            CHANNELS 3 Zrotation Xrotation Yrotation
            JOINT RightElbow
            {
                OFFSET -29.74256134033203 0.0 0.0
                CHANNELS 3 Zrotation Xrotation Yrotation
                JOINT RightHand
                {
                    OFFSET -32.387245178222656 0.0 0.0
                    CHANNELS 3 Zrotation Xrotation Yrotation
                    End Site
                    {
                        OFFSET -12.954896926879883 0.0 0.0
                    }
                }
            }
        }
        End Site
        {
            OFFSET 0.0 13.443415641784668 0.0
        }
    }
    JOINT LeftHip
    {
        OFFSET 16.69696024363509 -16.69696024363509 0.0
        CHANNELS 3 Zrotation Xrotation Yrotation
        JOINT LeftKnee
        {
            OFFSET 0.0 -42.08033752441406 0.0
            CHANNELS 3 Zrotation Xrotation Yrotation
            JOINT LeftFoot
            {
                OFFSET 0.0 -47.335411071777344 0.0
                CHANNELS 3 Zrotation Xrotation Yrotation
                End Site
                {
                    OFFSET 0.0 0.0 18.934162139892578
                }
            }
        }
    }
    JOINT RightHip
    {
        OFFSET -16.69696024363509 -16.69696024363509 0.0
        CHANNELS 3 Zrotation Xrotation Yrotation
        JOINT RightKnee
        {
            OFFSET 0.0 -42.08033752441406 0.0
            CHANNELS 3 Zrotation Xrotation Yrotation
            JOINT RightFoot
            {
                OFFSET 0.0 -47.335411071777344 0.0
                CHANNELS 3 Zrotation Xrotation Yrotation
                End Site
                {
                    OFFSET 0.0 0.0 18.934162139892578
                }
            }
        }
    }
}
MOTION
Frames: 6
Frame Time: 0.03333333333333333
106.5999984741211 16.5 18.399999618530273 13.953504442770729 2.897181629338278 -79.45791494321386 3.5452747368969174e-07 -1.0786710741088347e-06 -1.2875586964964292 129.74033354790205 -13.901290870713954 -121.13880684592165 -6.0244591697843086e-06 5.850498662913677e-06 41.181428017655236 -3.1805546814635168e-15 8.276074308844047e-33 -2.981770013872047e-16 -134.25134354181895 -14.133117146264919 127.03815725212651 2.0993121991211294e-06 4.65054179226345e-06 -58.21256873199465 -6.3611093629270335e-15 -1.7655625192200634e-31 3.1805546814635168e-15 5.57204959030336 -14.607291504996304 8.903344002397338 -2.536403414085839 -5.652580919183835 18.920775756974084 3.975693351829396e-16 -7.951386703658792e-16 -5.466578358765419e-16 4.069488650481988 -21.99375751163945 -22.831631541440967 -6.89397287691196 8.573880010659634 28.74816523330361 0.0 0.0 4.4415949164969026e-15
106.20000457763672 16.399999618530273 18.099998474121094 14.656763262668482 3.0671107675264797 -79.21267486913476 5.149365977328323e-07 -2.1599328208149464e-07 -1.546953041680335 132.8930624422034 -14.007767008750502 -121.57647398223864 1.1693139435906164e-06 -2.1364531973794516e-07 43.57112945183741 -1.1034765745125397e-32 -6.361109362927035e-15 -1.9878466759146985e-16 -135.96567473519875 -14.173476414827883 127.95721014314528 6.204370600666104e-06 -1.7219393773010137e-06 -61.33916911644527 -1.5902773407317582e-15 -6.3611093629270335e-15 3.1805546814635168e-15 5.7869561790115736 -15.673237919773587 12.532659745770776 -2.5971568825877687 -4.641155018328891 15.879152046126489 2.1035022201645286e-32 -7.951386703658791e-16 3.031466180769914e-15 4.346974907174573 -22.516475537494088 -22.58048624868084 -6.848508190065787 8.58877075712486 27.826440098411105 0.0 0.0 5.727483234979224e-15
105.79999542236328 16.399999618530273 18.0 15.359800138639926 3.06647042342502 -78.7684621754255 4.422041766138656e-08 -4.583547411527287e-07 -2.745638234316759 134.35420181320865 -13.306160911059155 -122.48931240671484 1.293086321239312e-06 1.5952953934318758e-06 45.524438756606614 0.0 0.0 2.3854160110976376e-15 -137.019982097921 -14.802336983296588 127.78071443097416 -5.290358352936335e-07 -2.1717218084874325e-06 -63.07877467679465 -3.1805546814635168e-15 -5.565970692561154e-15 -1.5448672043175555e-31 5.751307379041301 -16.02077202419788 12.07580056322951 -2.701405972572792 -5.166674827908738 17.818999874654473 7.951386703658794e-16 -7.951386703658794e-16 2.410264094546572e-15 4.226232780661568 -23.00077756047168 -22.148270787406023 -6.701374973547685 8.552289479368703 27.040739790967095 -1.3168441152874253e-32 -3.975693351829396e-16 -3.795544746824627e-15
105.49999237060547 16.5 17.80000114440918 16.06244970669651 2.89537253351987 -79.28597105793145 -1.3855376319210561e-06 8.005815971419052e-07 -2.485791870949491 135.4295784382167 -12.676076405470186 -122.78929250198134 4.961582988153574e-06 -3.7696820468137856e-06 46.905465929646915 -3.1805546814635168e-15 1.1034765745125397e-32 -3.975693351829396e-16 -138.15639182106185 -14.827671659442103 127.63822519323438 -2.6692226252045127e-06 9.953499194841717e-08 -64.68714971979674 -3.1805546814635168e-15 -6.3611093629270335e-15 -1.7655625192200634e-31 5.860287453042236 -16.10111258951376 8.934299640528641 -2.4836241306367413 -5.240005205155207 19.25689059219546 -3.975693351829396e-16 6.957463365701443e-16 -2.1617832600572342e-15 4.488354160733343 -23.401389068043347 -19.987462540372857 -6.592561146908448 8.560462879130565 26.336916755612553 -3.9756933518293955e-16 -2.9095573742029853e-32 8.38622816401513e-15
105.0999984741211 16.399999618530273 17.600000381469727 16.389543286040233 2.8905787579562556 -79.19060454583456 -1.3342371372652322e-07 5.810204334190475e-07 -1.89068813923722 135.93382284909688 -12.677201164507753 -123.00587360615981 5.76700147537389e-06 -2.8396386370935617e-06 48.10252533954837 0.0 0.0 -3.9756933518293955e-16 -138.7397030927933 -14.726225589149658 128.37308340012166 -2.6118764665536587e-06 -1.8832558444867246e-06 -66.34037374204836 -1.5902773407317584e-15 -7.951386703658792e-16 3.1805546814635168e-15 6.055892205161986 -16.476772395816333 11.493106980355543 -2.8426020221049533 -4.685112747743401 16.977180926671405 3.975693351829396e-16 -9.93923337957349e-17 -7.20594420019078e-16 4.52819485186952 -23.750641187921683 -21.142291659651875 -6.817431447624338 8.668744112263472 26.611741653746858 0.0 0.0 -2.671168970760376e-16
104.79999542236328 16.399999618530273 17.299999237060547 17.14034030851013 3.237268421262768 -79.2280685421575 -3.6641448506761173e-07 1.2874416233565103e-06 -1.26540961000606 136.58913863540965 -12.502602327041577 -122.76221185101365 -2.4928123722627548e-06 2.309273543046287e-06 49.17840684790823 0.0 0.0 0.0 -138.55594962090683 -14.309076985710725 128.34470192756254 4.5705563139369185e-06 1.8349773531255812e-06 -67.25762268109803 1.5902773407317584e-15 0.0 0.0 6.281401969755205 -17.273794473499237 11.82164458885473 -2.697578024369794 -4.615004503437602 16.347755984486597 -1.9878466759146985e-16 -4.1164848775760756e-33 2.372991969373171e-15 4.900588914930639 -24.570825709466682 -21.79236608242675 -7.118100331261724 8.786064824493176 27.76623286788791 0.0 0.0 -4.603107458914972e-15
